# xmcd
#
# Track frame offsets:
#	150
#	31810
#	43547
#	64017
#	77032
#	87392
#	102402
#	122430
#	146275
#	172720
#	191432
#	200850
#	219125
#	234727
#	246830
#	261530
#	278222
#	291017
#	309797
#
# Disc length: 4438 seconds
#
# Revision: 1
# Processed by: cddbd v1.5.1PL2 Copyright (c) Steve Scherf et al.
# Submitted via: audiograbber 1.83.01
#
DISCID=07115413
DTITLE=Zdenek Rytir - Nautilus Zdenka Rytire CD1
DYEAR=2004
DGENRE=
TTITLE0=Nautilus
TTITLE1=Vis, kdo ti smi z tvych vasku copy splest
TTITLE2=Pisen pro Joriku
TTITLE3=Snidane v trave
TTITLE4=Strejcek Charlie
TTITLE5=Alenka v risi divu
TTITLE6=Dite stesteny
TTITLE7=Kdo vchazi do tvych snu
TTITLE8=Penzion Blues
TTITLE9=Poveste ho vejs
TTITLE10=Odejdu
TTITLE11=Za vsechno muze cas
TTITLE12=Mestacky blues
TTITLE13=Carodej Dobrodej
TTITLE14=Jizanksy rok
TTITLE15=Hrac
TTITLE16=Casy se meni
TTITLE17=Bajecna zenska
TTITLE18=Ring o ding
EXTD=
EXTT0=
EXTT1=
EXTT2=
EXTT3=
EXTT4=
EXTT5=
EXTT6=
EXTT7=
EXTT8=
EXTT9=
EXTT10=
EXTT11=
EXTT12=
EXTT13=
EXTT14=
EXTT15=
EXTT16=
EXTT17=
EXTT18=
PLAYORDER=
